<svg fill="#000000" xmlns="http://www.w3.org/2000/svg"  viewBox="0 0 50 50" width="50px" height="50px"><path d="M 32.898438 32.398438 L 32.898438 21.699219 C 33.601563 23 34.601563 24.199219 35.800781 25.101563 C 36.398438 25.5 37 26 37.601563 26.398438 C 38 26.699219 38.5 27 38.898438 27.300781 C 41.601563 29.199219 42.101563 30.5 42.101563 31 C 42.101563 31.300781 42.101563 31.601563 41.699219 32.199219 C 41.5 32.199219 41.101563 32.300781 40.800781 32.300781 C 40.699219 32.300781 40.5 32.300781 40.398438 32.300781 C 39.300781 32.398438 37.800781 32.5 36.101563 32.5 C 34.601563 32.5 33.398438 32.5 33.398438 32.5 Z M 15.199219 29.199219 L 16.800781 20.699219 L 16.800781 26.199219 L 16.101563 27.5 Z M 13.898438 10 L 12.199219 10 L 11.898438 11.601563 L 11.601563 13.199219 L 12.199219 13.5 C 11.898438 14.898438 11.398438 17.898438 10.800781 21.101563 L 8.601563 11.5 L 8.199219 10 L 0 10 L 0 12.300781 L 0.101563 12.5 L 6.101563 36.398438 L 6.5 38 L 14.898438 38 L 14.398438 35.601563 L 14.199219 34.800781 L 15 30.5 L 16.800781 30.5 L 16.800781 38 L 24.398438 38 L 24.398438 30.398438 L 25.300781 30.398438 L 25.300781 38 L 32.898438 38 L 32.898438 37.800781 C 33.5 38.101563 34.199219 38.101563 35.199219 38.101563 L 41.199219 38.101563 C 44.300781 38 47 36.300781 48.398438 33.699219 C 49.800781 31.101563 49.800781 27.800781 48.398438 25.300781 C 47.398438 23.601563 44.699219 21.5 41.398438 19 C 40.601563 18.398438 39.5 17.601563 39.300781 17.398438 C 39.101563 17.199219 39.101563 17 39.101563 16.800781 C 39.101563 16.601563 39.300781 16.5 39.5 16.398438 C 40.601563 15.898438 42.5 15.898438 43.699219 15.898438 L 48.699219 15.898438 L 49.199219 14.699219 L 49.898438 13.199219 L 50.101563 12.800781 L 50.101563 10 L 39.898438 10 C 38.5 10 36.699219 10 35.199219 11.101563 C 34.300781 11.699219 33.699219 12.5 33.101563 13.398438 L 33.101563 10 L 25.5 10 L 25.5 23.898438 L 24.699219 23.898438 L 24.699219 10 L 14.5 10 C 14 10 13.898438 10 13.898438 10 Z M 30.898438 12 L 30.898438 36 L 27.300781 36 L 27.300781 27.398438 L 25.199219 28.398438 L 22.398438 28.398438 L 22.398438 36 L 18.800781 36 L 18.800781 28.5 L 17.898438 28.5 L 18.800781 26.800781 L 18.800781 12.101563 L 22.398438 12.101563 L 22.398438 26 L 27.199219 26 L 27.199219 12 L 30.898438 12 M 48 12 L 47.300781 13.601563 L 43.699219 13.601563 C 42 13.601563 40.101563 13.601563 38.699219 14.300781 C 37.101563 15.101563 36.699219 17.101563 37.898438 18.5 C 38.699219 19.398438 45.5 23.898438 46.800781 26.101563 C 49 29.898438 46.699219 35.601563 41.300781 35.898438 C 41.101563 35.898438 37.800781 35.898438 36.199219 35.898438 C 36.199219 35.898438 35.800781 35.898438 35.300781 35.898438 C 34.699219 35.898438 34 35.898438 34 35.898438 C 33.898438 35.5 33.601563 34.898438 33.5 34.300781 C 33.5 34.300781 34.699219 34.398438 36.300781 34.398438 C 37.699219 34.398438 39.398438 34.398438 40.800781 34.199219 C 41.699219 34.101563 42.800781 34.101563 43.199219 33.601563 C 45.800781 30.601563 43.199219 27.699219 40.199219 25.601563 C 39.199219 24.898438 38.101563 24.199219 37.101563 23.5 C 33.800781 21.101563 32.5 15.601563 36.300781 12.800781 C 37.300781 12 38.800781 12.101563 40 12.101563 C 42.5 12 45.300781 12 48 12 M 13.898438 12 L 16.398438 12 L 12.199219 34.699219 L 12.5 35.898438 L 8 35.898438 L 2 12.101563 L 2 12 C 2 12 5.101563 12 6.601563 12 L 11 30.898438 C 12.101563 24.898438 14.300781 13 14.300781 12.898438 C 14.300781 12.699219 14.199219 12.5 14.101563 12.300781 C 14.101563 12.300781 13.898438 12.101563 13.898438 12 C 13.800781 12 13.800781 12 13.898438 12"/></svg>